<svg width="150" height="150" viewBox="0 0 150 150" fill="none" xmlns="http://www.w3.org/2000/svg">
<path d="M90 41.25C88.0109 41.25 86.1032 42.0402 84.6967 43.4467C83.2902 44.8532 82.5 46.7609 82.5 48.75C82.5 50.7391 83.2902 52.6468 84.6967 54.0533C86.1032 55.4598 88.0109 56.25 90 56.25C91.9891 56.25 93.8968 55.4598 95.3033 54.0533C96.7098 52.6468 97.5 50.7391 97.5 48.75C97.5 46.7609 96.7098 44.8532 95.3033 43.4467C93.8968 42.0402 91.9891 41.25 90 41.25ZM52.5 48.75C52.5 46.7609 53.2902 44.8532 54.6967 43.4467C56.1032 42.0402 58.0109 41.25 60 41.25C61.9891 41.25 63.8968 42.0402 65.3033 43.4467C66.7098 44.8532 67.5 46.7609 67.5 48.75C67.5 50.7391 66.7098 52.6468 65.3033 54.0533C63.8968 55.4598 61.9891 56.25 60 56.25C58.0109 56.25 56.1032 55.4598 54.6967 54.0533C53.2902 52.6468 52.5 50.7391 52.5 48.75ZM78.75 18.75C78.75 17.7554 78.3549 16.8016 77.6517 16.0984C76.9484 15.3951 75.9946 15 75 15C74.0054 15 73.0516 15.3951 72.3483 16.0984C71.6451 16.8016 71.25 17.7554 71.25 18.75V22.5H48.75C45.7663 22.5 42.9048 23.6853 40.795 25.795C38.6853 27.9048 37.5 30.7663 37.5 33.75V63.75C37.5 66.7337 38.6853 69.5952 40.795 71.705C42.9048 73.8147 45.7663 75 48.75 75H101.25C104.234 75 107.095 73.8147 109.205 71.705C111.315 69.5952 112.5 66.7337 112.5 63.75V33.75C112.5 30.7663 111.315 27.9048 109.205 25.795C107.095 23.6853 104.234 22.5 101.25 22.5H78.75V18.75ZM48.75 30H101.25C102.245 30 103.198 30.3951 103.902 31.0984C104.605 31.8016 105 32.7554 105 33.75V63.75C105 64.7446 104.605 65.6984 103.902 66.4017C103.198 67.1049 102.245 67.5 101.25 67.5H48.75C47.7554 67.5 46.8016 67.1049 46.0984 66.4017C45.3951 65.6984 45 64.7446 45 63.75V33.75C45 32.7554 45.3951 31.8016 46.0984 31.0984C46.8016 30.3951 47.7554 30 48.75 30ZM76.875 134.985C96.495 134.737 108.338 130.523 115.29 124.185C121.853 118.185 123.458 110.857 123.713 105.015H123.75V99.84C123.748 96.241 122.317 92.7901 119.771 90.2459C117.226 87.7017 113.774 86.2725 110.175 86.2725H86.25V86.25H63.75V86.2725H39.825C32.325 86.2725 26.25 92.3475 26.25 99.8475V105.015H26.2875C26.5425 110.865 28.1475 118.192 34.71 124.177C41.6625 130.522 53.505 134.737 73.125 134.985V135H76.875V134.985ZM39.825 93.7725H110.175C111.786 93.7725 113.331 94.4125 114.471 95.5518C115.61 96.6911 116.25 98.2363 116.25 99.8475V103.125C116.25 108.3 115.268 114.045 110.235 118.643C105.075 123.345 94.95 127.5 75 127.5C55.05 127.5 44.925 123.345 39.765 118.643C34.74 114.045 33.75 108.293 33.75 103.125V99.84C33.752 98.2301 34.3929 96.6868 35.532 95.5492C36.671 94.4115 38.2151 93.7725 39.825 93.7725Z" fill="white" fill-opacity="0.9"/>
</svg>
