<svg width="35" height="35" viewBox="0 0 50 50" fill="none" xmlns="http://www.w3.org/2000/svg">
<path d="M22.9167 22.9167H27.0833V8.33334C27.0833 7.74307 26.8833 7.24793 26.4833 6.84793C26.0833 6.44793 25.5889 6.24862 25 6.25001C24.4097 6.25001 23.9146 6.45001 23.5146 6.85001C23.1146 7.25001 22.9153 7.74445 22.9167 8.33334V22.9167ZM10.4167 31.25H39.5833V27.0833H10.4167V31.25ZM7.39584 43.75H12.5V37.5H16.6667V43.75H22.9167V37.5H27.0833V43.75H33.3333V37.5H37.5V43.75H42.6042L40.5208 35.4167H9.47918L7.39584 43.75ZM2.08334 47.9167L6.25001 31.25V22.9167H18.75V8.33334C18.75 6.59723 19.3576 5.12154 20.5729 3.90626C21.7882 2.69098 23.2639 2.08334 25 2.08334C26.7361 2.08334 28.2118 2.69098 29.4271 3.90626C30.6424 5.12154 31.25 6.59723 31.25 8.33334V22.9167H43.75V31.25L47.9167 47.9167H2.08334Z" fill="#2C2F81"/>
</svg>
