<svg width="30" height="30" viewBox="0 0 30 30" fill="none" xmlns="http://www.w3.org/2000/svg">
<g clip-path="url(#clip0_5_66)">
<path d="M9.375 3.75H5.625C4.59375 3.75 3.75 4.59375 3.75 5.625V9.375C3.75 10.4062 4.59375 11.25 5.625 11.25H9.375C10.4062 11.25 11.25 10.4062 11.25 9.375V5.625C11.25 4.59375 10.4062 3.75 9.375 3.75ZM20.625 11.25H24.375C25.4062 11.25 26.25 10.4062 26.25 9.375V5.625C26.25 4.59375 25.4062 3.75 24.375 3.75H20.625C19.5938 3.75 18.75 4.59375 18.75 5.625V9.375C18.75 10.4062 19.5938 11.25 20.625 11.25ZM20.625 5.625H24.375V9.375H20.625V5.625ZM9.375 18.75H5.625C4.59375 18.75 3.75 19.5938 3.75 20.625V24.375C3.75 25.4062 4.59375 26.25 5.625 26.25H9.375C10.4062 26.25 11.25 25.4062 11.25 24.375V20.625C11.25 19.5938 10.4062 18.75 9.375 18.75ZM9.375 24.375H5.625V20.625H9.375V24.375ZM24.375 18.75H20.625C19.5938 18.75 18.75 19.5938 18.75 20.625V24.375C18.75 25.4062 19.5938 26.25 20.625 26.25H24.375C25.4062 26.25 26.25 25.4062 26.25 24.375V20.625C26.25 19.5938 25.4062 18.75 24.375 18.75Z" fill="#F608C1"/>
<path d="M26.25 15H24.375C21.87 15 19.5169 14.025 17.745 12.255C15.9731 10.485 15 8.13 15 5.625V3.75C15 1.6875 13.3125 0 11.25 0H3.75C1.6875 0 0 1.6875 0 3.75V11.25C0 13.3125 1.6875 15 3.75 15H5.625C8.13 15 10.4831 15.975 12.255 17.745C14.0269 19.515 15 21.87 15 24.375V26.25C15 28.3125 16.6875 30 18.75 30H26.25C28.3125 30 30 28.3125 30 26.25V18.75C30 16.6875 28.3125 15 26.25 15ZM28.125 26.25C28.125 26.7469 27.9281 27.2156 27.5719 27.5719C27.2156 27.9281 26.7469 28.125 26.25 28.125H18.75C18.2531 28.125 17.7844 27.9281 17.4281 27.5719C17.0719 27.2156 16.875 26.7469 16.875 26.25V24.375C16.875 21.3913 15.6897 18.5298 13.58 16.42C11.4702 14.3103 8.60869 13.125 5.625 13.125H3.75C3.25312 13.125 2.78437 12.9281 2.42812 12.5719C2.07187 12.2156 1.875 11.745 1.875 11.25V3.75C1.875 3.25312 2.07187 2.78437 2.42812 2.42812C2.78437 2.07187 3.25312 1.875 3.75 1.875H11.25C11.7469 1.875 12.2156 2.07187 12.5719 2.42812C12.9281 2.78437 13.125 3.25312 13.125 3.75V5.625C13.125 8.60869 14.3103 11.4702 16.42 13.58C18.5298 15.6897 21.3913 16.875 24.375 16.875H26.25C26.7469 16.875 27.2156 17.0719 27.5719 17.4281C27.9281 17.7844 28.125 18.2531 28.125 18.75V26.25Z" fill="#F608C1"/>
</g>
<defs>
<clipPath id="clip0_5_66">
<rect width="30" height="30" fill="white"/>
</clipPath>
</defs>
</svg>
