<svg width="25" height="25" viewBox="0 0 50 50" fill="none" xmlns="http://www.w3.org/2000/svg">
<path d="M25 20.8333C29.6023 20.8333 33.3333 17.1024 33.3333 12.5C33.3333 7.89763 29.6023 4.16667 25 4.16667C20.3976 4.16667 16.6666 7.89763 16.6666 12.5C16.6666 17.1024 20.3976 20.8333 25 20.8333Z" stroke="#555555" stroke-width="2"/>
<path d="M41.6604 37.5C41.6666 37.1583 41.6666 36.8104 41.6666 36.4583C41.6666 31.2813 34.2041 27.0833 25 27.0833C15.7958 27.0833 8.33331 31.2813 8.33331 36.4583C8.33331 41.6354 8.33331 45.8333 25 45.8333C29.6479 45.8333 33 45.5063 35.4166 44.9229" stroke="#555555" stroke-width="2" stroke-linecap="round"/>
</svg>
